HIERARCHY
ROOT Hips
{
	OFFSET 0.000000 91.145859 0.000000
	CHANNELS 6 Xposition Yposition Zposition Xrotation Yrotation Zrotation
	JOINT RightUpLeg
	{
		OFFSET -7.978667 0.020721 -0.002302
		CHANNELS 6 Xposition Yposition Zposition Xrotation Yrotation Zrotation
		JOINT RightLeg
		{
			OFFSET 0.000000 -41.199940 -0.001896
			CHANNELS 6 Xposition Yposition Zposition Xrotation Yrotation Zrotation
			JOINT RightFoot
			{
				OFFSET 0.000000 -40.188831 -0.003196
				CHANNELS 6 Xposition Yposition Zposition Xrotation Yrotation Zrotation
				JOINT RightToeBase
				{
					OFFSET 0.000000 -7.938999 18.143169
					CHANNELS 6 Xposition Yposition Zposition Xrotation Yrotation Zrotation
					End Site
					{
						OFFSET 0.000000 19.804098 0.000000
					}
				}
			}
		}
	}
	JOINT LeftUpLeg
	{
		OFFSET 7.978667 0.018547 -0.002061
		CHANNELS 6 Xposition Yposition Zposition Xrotation Yrotation Zrotation
		JOINT LeftLeg
		{
			OFFSET 0.000000 -41.199940 -0.001896
			CHANNELS 6 Xposition Yposition Zposition Xrotation Yrotation Zrotation
			JOINT LeftFoot
			{
				OFFSET 0.000000 -40.188831 -0.003196
				CHANNELS 6 Xposition Yposition Zposition Xrotation Yrotation Zrotation
				JOINT LeftToeBase
				{
					OFFSET 0.000000 -7.938999 18.143169
					CHANNELS 6 Xposition Yposition Zposition Xrotation Yrotation Zrotation
					End Site
					{
						OFFSET 0.000000 19.804098 0.000000
					}
				}
			}
		}
	}
	JOINT Spine
	{
		OFFSET 0.000000 9.664909 -1.073879
		CHANNELS 6 Xposition Yposition Zposition Xrotation Yrotation Zrotation
		JOINT Spine1
		{
			OFFSET 0.000000 10.672623 0.000000
			CHANNELS 3 Xrotation Yrotation Zrotation
			JOINT Spine2
			{
				OFFSET 0.000000 9.745033 -0.008022
				CHANNELS 6 Xposition Yposition Zposition Xrotation Yrotation Zrotation
				JOINT Spine3
				{
					OFFSET 0.000000 9.734146 -0.008030
					CHANNELS 6 Xposition Yposition Zposition Xrotation Yrotation Zrotation
					JOINT LeftShoulder
					{
						OFFSET 2.982584 7.645615 0.000000
						CHANNELS 6 Xposition Yposition Zposition Xrotation Yrotation Zrotation
						JOINT LeftArm
						{
							OFFSET 14.068617 0.000000 0.000000
							CHANNELS 6 Xposition Yposition Zposition Xrotation Yrotation Zrotation
							JOINT LeftForeArm
							{
								OFFSET 30.140671 0.000000 0.000000
								CHANNELS 6 Xposition Yposition Zposition Xrotation Yrotation Zrotation
								JOINT LeftHand
								{
									OFFSET 24.636703 0.000000 0.000000
									CHANNELS 6 Xposition Yposition Zposition Xrotation Yrotation Zrotation
									End Site
									{
										OFFSET 0.000000 24.636703 0.000000
									}
								}
							}
						}
					}
					JOINT RightShoulder
					{
						OFFSET -2.982584 7.645615 0.000000
						CHANNELS 6 Xposition Yposition Zposition Xrotation Yrotation Zrotation
						JOINT RightArm
						{
							OFFSET -14.068617 0.000000 0.000000
							CHANNELS 6 Xposition Yposition Zposition Xrotation Yrotation Zrotation
							JOINT RightForeArm
							{
								OFFSET -30.140671 0.000000 0.000000
								CHANNELS 6 Xposition Yposition Zposition Xrotation Yrotation Zrotation
								JOINT RightHand
								{
									OFFSET -24.636703 0.000000 0.000000
									CHANNELS 6 Xposition Yposition Zposition Xrotation Yrotation Zrotation
									End Site
									{
										OFFSET 0.000000 24.636703 0.000000
									}
								}
							}
						}
					}
					JOINT Neck
					{
						OFFSET 0.000000 13.630920 0.000000
						CHANNELS 6 Xposition Yposition Zposition Xrotation Yrotation Zrotation
						JOINT Head
						{
							OFFSET 0.000000 9.064636 0.017252
							CHANNELS 6 Xposition Yposition Zposition Xrotation Yrotation Zrotation
							End Site
							{
								OFFSET 0.000000 9.064651 0.000000
							}
						}
					}
				}
			}
		}
	}
}
MOTION
Frames: 4
Frame Time: 0.008333
89.484001 75.497185 -139.618698 3.865114 -56.902767 6.766215 -7.978682 0.020721 -0.002300 -37.851310 -10.415957 -35.629723 0.000009 -41.199932 -0.001893 57.161969 0.506367 -6.140343 -0.000014 -40.188831 -0.003194 -24.448814 2.896189 13.219175 0.000007 -7.938995 18.143175 0.000000 0.000001 -0.000000 7.978644 0.018545 -0.002051 -42.745147 13.366148 31.094187 0.000003 -41.199944 -0.001891 46.028167 -0.051078 3.292662 0.000000 -40.188831 -0.003192 -15.441857 -13.341292 -24.574718 -0.000002 -7.938998 18.143167 -0.000001 0.000001 0.000000 -0.000018 9.664913 -1.073878 15.929663 2.054237 -3.551432 1.237164 1.182291 -1.394075 0.000013 9.745015 -0.008019 7.057596 1.182432 -1.393953 0.000001 9.734132 -0.008016 11.126641 0.793555 -1.118339 2.982576 7.645618 -0.000035 -1.260020 4.441692 -11.768369 14.068608 0.000001 0.000017 -45.784329 24.856004 -35.052357 30.140675 0.000000 -0.000003 31.589741 -54.231866 6.228873 24.636690 -0.000003 0.000004 19.470694 -6.264214 5.744584 -2.982584 7.645612 -0.000032 -3.738075 -8.292127 -0.182101 -14.068624 0.000001 -0.000019 -7.860352 -35.401191 61.927112 -30.140675 0.000003 0.000003 -8.324203 50.893614 14.618920 -24.636696 -0.000008 -0.000005 -10.078268 8.629082 6.173165 -0.000009 13.630928 -0.000027 11.774516 12.517887 -12.453174 -0.000006 9.064640 0.017240 -12.306952 27.684756 -18.052885 
89.431091 75.444183 -139.644196 3.735310 -56.709971 6.673302 -7.978681 0.020710 -0.002322 -37.834200 -10.442203 -35.802014 -0.000009 -41.199936 -0.001899 57.379381 0.341450 -6.084420 0.000008 -40.188831 -0.003202 -24.525929 2.998813 13.573544 0.000021 -7.938997 18.143185 0.000000 -0.000000 0.000000 7.978657 0.018550 -0.002084 -42.809959 13.426671 31.440477 -0.000006 -41.199944 -0.001890 45.931137 0.596352 2.884431 -0.000001 -40.188828 -0.003186 -14.823373 -13.195357 -24.389280 0.000011 -7.938999 18.143175 -0.000000 -0.000003 -0.000000 -0.000008 9.664909 -1.073901 15.942570 2.012555 -3.544825 1.243336 1.163574 -1.394428 -0.000002 9.745033 -0.008012 7.063771 1.163719 -1.394307 0.000004 9.734128 -0.008027 11.131301 0.779556 -1.117382 2.982591 7.645631 -0.000005 -1.284174 4.440933 -11.643863 14.068614 -0.000003 -0.000010 -45.850531 24.952549 -34.908704 30.140671 -0.000019 0.000002 31.395712 -54.188095 6.098389 24.636698 -0.000002 0.000008 19.446590 -6.256855 5.741471 -2.982579 7.645619 -0.000013 -3.815341 -8.313189 -0.105427 -14.068615 -0.000003 0.000006 -7.864544 -35.327381 61.885639 -30.140678 -0.000006 -0.000003 -8.376914 50.964498 14.711452 -24.636711 -0.000011 -0.000005 -10.099143 8.615023 6.215549 0.000008 13.630929 -0.000012 11.769169 12.509643 -12.432961 -0.000000 9.064644 0.017242 -12.324034 27.662990 -18.015435 
89.364273 75.380531 -139.632751 3.496556 -56.583367 6.510190 -7.978661 0.020713 -0.002292 -37.784774 -10.487164 -36.024959 0.000003 -41.199932 -0.001888 57.602230 0.407480 -6.052444 0.000021 -40.188831 -0.003197 -24.621912 2.975023 13.880193 -0.000009 -7.938999 18.143162 -0.000000 -0.000000 0.000000 7.978678 0.018536 -0.002054 -42.796248 13.522097 31.755318 0.000004 -41.199947 -0.001888 45.800800 0.903536 2.484716 0.000006 -40.188835 -0.003191 -13.817108 -13.372021 -24.184078 0.000002 -7.939003 18.143181 -0.000000 -0.000001 -0.000000 0.000022 9.664909 -1.073861 15.968026 1.973589 -3.546784 1.255017 1.146829 -1.398259 -0.000003 9.745031 -0.008046 7.075448 1.146974 -1.398138 -0.000003 9.734155 -0.008011 11.140076 0.766829 -1.119150 2.982587 7.645622 0.000003 -1.301366 4.444914 -11.509064 14.068610 -0.000012 -0.000017 -45.883432 25.121058 -34.763412 30.140675 -0.000002 -0.000001 31.241856 -54.128378 5.990848 24.636719 -0.000006 0.000003 19.432757 -6.241140 5.724405 -2.982569 7.645598 0.000011 -3.893084 -8.312191 -0.035917 -14.068599 -0.000003 0.000001 -7.880890 -35.223736 61.833122 -30.140678 0.000016 -0.000004 -8.360308 51.075000 14.781472 -24.636711 -0.000011 0.000014 -10.107100 8.597390 6.282085 0.000016 13.630919 0.000019 11.773506 12.505620 -12.418801 0.000001 9.064632 0.017239 -12.320395 27.649832 -17.990392 
89.306656 75.312439 -139.588501 3.252880 -56.493492 6.352909 -7.978660 0.020715 -0.002309 -37.728421 -10.499194 -36.254046 0.000001 -41.199936 -0.001902 57.810482 0.481315 -6.018911 -0.000000 -40.188839 -0.003194 -24.694522 2.957337 14.138231 0.000008 -7.938993 18.143154 -0.000000 -0.000000 -0.000001 7.978671 0.018540 -0.002063 -42.777806 13.622371 31.968509 -0.000004 -41.199951 -0.001888 45.712137 0.939717 2.212654 0.000011 -40.188831 -0.003180 -12.714527 -13.443392 -23.929172 -0.000001 -7.938997 18.143156 -0.000000 -0.000001 -0.000000 0.000001 9.664901 -1.073885 15.978254 1.942689 -3.541734 1.259878 1.132963 -1.398452 0.000015 9.745039 -0.008023 7.080309 1.133103 -1.398336 -0.000002 9.734147 -0.008031 11.143735 0.756464 -1.118393 2.982577 7.645614 -0.000009 -1.317267 4.459945 -11.407239 14.068615 -0.000000 0.000008 -45.888882 25.280011 -34.643628 30.140675 0.000001 0.000009 31.133423 -54.029337 5.896014 24.636694 -0.000006 0.000003 19.420055 -6.230207 5.696360 -2.982593 7.645616 -0.000001 -3.943913 -8.303667 0.003497 -14.068615 -0.000013 -0.000017 -7.906524 -35.139042 61.791014 -30.140671 0.000004 0.000003 -8.369661 51.191588 14.873802 -24.636696 0.000000 -0.000001 -10.114866 8.580840 6.330945 0.000006 13.630925 -0.000004 11.791363 12.504031 -12.410120 0.000001 9.064639 0.017261 -12.288858 27.641280 -17.978134 
